{
  "accessors": [
    {
      "bufferView": 2,
      "componentType": 5126,
      "count": 65532,
      "max": [
        1.8087730407714844,
        -1.334941029548645,
        1.1925029754638672
      ],
      "min": [
        -1.844406008720398,
        -2.239727020263672,
        -0.9067609906196594
      ],
      "type": "VEC3"
    },
    {
      "bufferView": 2,
      "byteOffset": 786384,
      "componentType": 5126,
      "count": 65532,
      "max": [
        0.9999154210090637,
        0.9999971389770508,
        0.999967098236084
      ],
      "min": [
        -0.9999634027481079,
        -1.0,
        -0.9999520778656006
      ],
      "type": "VEC3"
    },
    {
      "bufferView": 3,
      "componentType": 5126,
      "count": 65532,
      "max": [
        1.0,
        0.7372549176216125,
        0.3843137323856354,
        1.0
      ],
      "min": [
        0.4274509847164154,
        0.2666666805744171,
        0.08235294371843338,
        1.0
      ],
      "type": "VEC4"
    },
    {
      "bufferView": 1,
      "componentType": 5126,
      "count": 65532,
      "max": [
        0.22790399193763733,
        0.9680938124656677
      ],
      "min": [
        0.015049874782562256,
        0.022680019959807396
      ],
      "type": "VEC2"
    },
    {
      "bufferView": 0,
      "componentType": 5125,
      "count": 98298,
      "type": "SCALAR"
    },
    {
      "bufferView": 2,
      "byteOffset": 1572768,
      "componentType": 5126,
      "count": 65532,
      "max": [
        1.932062029838562,
        1.905735969543457,
        1.680264949798584
      ],
      "min": [
        -1.8036949634552002,
        -2.2526419162750244,
        -2.1767539978027344
      ],
      "type": "VEC3"
    },
    {
      "bufferView": 2,
      "byteOffset": 2359152,
      "componentType": 5126,
      "count": 65532,
      "max": [
        0.9999662041664124,
        0.9993784427642822,
        0.9999000430107117
      ],
      "min": [
        -0.9203409552574158,
        -0.9998833537101746,
        -0.9998838901519775
      ],
      "type": "VEC3"
    },
    {
      "bufferView": 3,
      "byteOffset": 1048512,
      "componentType": 5126,
      "count": 65532,
      "max": [
        1.0,
        0.7372549176216125,
        0.3843137323856354,
        1.0
      ],
      "min": [
        0.7372549176216125,
        0.43529412150382996,
        0.2235294133424759,
        1.0
      ],
      "type": "VEC4"
    },
    {
      "bufferView": 1,
      "byteOffset": 524256,
      "componentType": 5126,
      "count": 65532,
      "max": [
        0.9902847409248352,
        1.0
      ],
      "min": [
        0.012011575512588024,
        0.033215705305337906
      ],
      "type": "VEC2"
    },
    {
      "bufferView": 0,
      "byteOffset": 393192,
      "componentType": 5125,
      "count": 98298,
      "type": "SCALAR"
    },
    {
      "bufferView": 2,
      "byteOffset": 3145536,
      "componentType": 5126,
      "count": 65532,
      "max": [
        1.9303879737854004,
        1.9470330476760864,
        1.6803979873657227
      ],
      "min": [
        -1.6136490106582642,
        -0.9777489900588989,
        -2.176948070526123
      ],
      "type": "VEC3"
    },
    {
      "bufferView": 2,
      "byteOffset": 3931920,
      "componentType": 5126,
      "count": 65532,
      "max": [
        0.9983484148979187,
        0.9998924136161804,
        0.9999715089797974
      ],
      "min": [
        -0.9984064698219299,
        -0.9999583959579468,
        -0.999950647354126
      ],
      "type": "VEC3"
    },
    {
      "bufferView": 3,
      "byteOffset": 2097024,
      "componentType": 5126,
      "count": 65532,
      "max": [
        0.7372549176216125,
        0.43529412150382996,
        0.2235294133424759,
        1.0
      ],
      "min": [
        0.7372549176216125,
        0.43529412150382996,
        0.2235294133424759,
        1.0
      ],
      "type": "VEC4"
    },
    {
      "bufferView": 1,
      "byteOffset": 1048512,
      "componentType": 5126,
      "count": 65532,
      "max": [
        1.0,
        0.9995667934417725
      ],
      "min": [
        0.3119346797466278,
        0.08239810168743134
      ],
      "type": "VEC2"
    },
    {
      "bufferView": 0,
      "byteOffset": 786384,
      "componentType": 5125,
      "count": 98298,
      "type": "SCALAR"
    },
    {
      "bufferView": 2,
      "byteOffset": 4718304,
      "componentType": 5126,
      "count": 65533,
      "max": [
        1.2694740295410156,
        1.9470330476760864,
        1.6803979873657227
      ],
      "min": [
        -1.9320440292358398,
        -0.9777489900588989,
        -2.176948070526123
      ],
      "type": "VEC3"
    },
    {
      "bufferView": 2,
      "byteOffset": 5504700,
      "componentType": 5126,
      "count": 65533,
      "max": [
        0.9737288951873779,
        0.9998924732208252,
        0.9999715089797974
      ],
      "min": [
        -0.9999661445617676,
        -0.9999585151672363,
        -0.999950647354126
      ],
      "type": "VEC3"
    },
    {
      "bufferView": 3,
      "byteOffset": 3145536,
      "componentType": 5126,
      "count": 65533,
      "max": [
        1.0,
        1.0,
        1.0,
        1.0
      ],
      "min": [
        0.2549019753932953,
        0.2549019753932953,
        0.2235294133424759,
        1.0
      ],
      "type": "VEC4"
    },
    {
      "bufferView": 1,
      "byteOffset": 1572768,
      "componentType": 5126,
      "count": 65533,
      "max": [
        1.0,
        0.8285274505615234
      ],
      "min": [
        0.3119346797466278,
        0.0
      ],
      "type": "VEC2"
    },
    {
      "bufferView": 0,
      "byteOffset": 1179576,
      "componentType": 5125,
      "count": 98085,
      "type": "SCALAR"
    },
    {
      "bufferView": 2,
      "byteOffset": 6291096,
      "componentType": 5126,
      "count": 65534,
      "max": [
        -0.06098800152540207,
        1.8878220319747925,
        1.6792789697647095
      ],
      "min": [
        -1.930053949356079,
        -0.9736620187759399,
        -2.157057046890259
      ],
      "type": "VEC3"
    },
    {
      "bufferView": 2,
      "byteOffset": 7077504,
      "componentType": 5126,
      "count": 65534,
      "max": [
        0.3511354625225067,
        0.9983701109886169,
        0.9994130730628967
      ],
      "min": [
        -0.9982298612594604,
        -0.9989268183708191,
        -0.9877492189407349
      ],
      "type": "VEC3"
    },
    {
      "bufferView": 3,
      "byteOffset": 4194064,
      "componentType": 5126,
      "count": 65534,
      "max": [
        0.7372549176216125,
        0.43529412150382996,
        0.2235294133424759,
        1.0
      ],
      "min": [
        0.7372549176216125,
        0.43529412150382996,
        0.2235294133424759,
        1.0
      ],
      "type": "VEC4"
    },
    {
      "bufferView": 1,
      "byteOffset": 2097032,
      "componentType": 5126,
      "count": 65534,
      "max": [
        0.9860703945159912,
        0.4842144548892975
      ],
      "min": [
        0.31289616227149963,
        0.000514996238052845
      ],
      "type": "VEC2"
    },
    {
      "bufferView": 0,
      "byteOffset": 1571916,
      "componentType": 5125,
      "count": 98298,
      "type": "SCALAR"
    },
    {
      "bufferView": 2,
      "byteOffset": 7863912,
      "componentType": 5126,
      "count": 65534,
      "max": [
        1.7595789432525635,
        1.9467829465866089,
        1.6792789697647095
      ],
      "min": [
        -1.1554559469223022,
        -0.9593309760093689,
        -1.9374200105667114
      ],
      "type": "VEC3"
    },
    {
      "bufferView": 2,
      "byteOffset": 8650320,
      "componentType": 5126,
      "count": 65534,
      "max": [
        0.9984063506126404,
        0.9998449683189392,
        0.9997538924217224
      ],
      "min": [
        -0.831296443939209,
        -0.9963391423225403,
        -0.8723154664039612
      ],
      "type": "VEC3"
    },
    {
      "bufferView": 3,
      "byteOffset": 5242608,
      "componentType": 5126,
      "count": 65534,
      "max": [
        0.7372549176216125,
        0.43529412150382996,
        0.2235294133424759,
        1.0
      ],
      "min": [
        0.7372549176216125,
        0.43529412150382996,
        0.2235294133424759,
        1.0
      ],
      "type": "VEC4"
    },
    {
      "bufferView": 1,
      "byteOffset": 2621304,
      "componentType": 5126,
      "count": 65534,
      "max": [
        0.9999411702156067,
        0.9553627371788025
      ],
      "min": [
        0.31626757979393005,
        0.20097482204437256
      ],
      "type": "VEC2"
    },
    {
      "bufferView": 0,
      "byteOffset": 1965108,
      "componentType": 5125,
      "count": 98298,
      "type": "SCALAR"
    },
    {
      "bufferView": 2,
      "byteOffset": 9436728,
      "componentType": 5126,
      "count": 65534,
      "max": [
        1.6136670112609863,
        1.9467829465866089,
        1.3901560306549072
      ],
      "min": [
        -1.3900680541992188,
        -2.0982730388641357,
        -1.1812419891357422
      ],
      "type": "VEC3"
    },
    {
      "bufferView": 2,
      "byteOffset": 10223136,
      "componentType": 5126,
      "count": 65534,
      "max": [
        0.9998809099197388,
        1.0,
        0.9996969103813171
      ],
      "min": [
        -0.9998809099197388,
        -0.9999695420265198,
        -0.9999735951423645
      ],
      "type": "VEC3"
    },
    {
      "bufferView": 3,
      "byteOffset": 6291152,
      "componentType": 5126,
      "count": 65534,
      "max": [
        1.0,
        1.0,
        1.0,
        1.0
      ],
      "min": [
        0.16078431904315948,
        0.16078431904315948,
        0.16078431904315948,
        1.0
      ],
      "type": "VEC4"
    },
    {
      "bufferView": 1,
      "byteOffset": 3145576,
      "componentType": 5126,
      "count": 65534,
      "max": [
        0.9999411702156067,
        0.9176018834114075
      ],
      "min": [
        0.048327431082725525,
        0.14025908708572388
      ],
      "type": "VEC2"
    },
    {
      "bufferView": 0,
      "byteOffset": 2358300,
      "componentType": 5125,
      "count": 98298,
      "type": "SCALAR"
    },
    {
      "bufferView": 2,
      "byteOffset": 11009544,
      "componentType": 5126,
      "count": 65534,
      "max": [
        0.9289150238037109,
        -0.009127000346779823,
        0.8420900106430054
      ],
      "min": [
        -0.9540770053863525,
        -2.0982730388641357,
        -1.1812419891357422
      ],
      "type": "VEC3"
    },
    {
      "bufferView": 2,
      "byteOffset": 11795952,
      "componentType": 5126,
      "count": 65534,
      "max": [
        0.9944533109664917,
        0.9999999403953552,
        0.9996969103813171
      ],
      "min": [
        -0.999981701374054,
        -0.9999695420265198,
        -0.9995936751365662
      ],
      "type": "VEC3"
    },
    {
      "bufferView": 3,
      "byteOffset": 7339696,
      "componentType": 5126,
      "count": 65534,
      "max": [
        1.0,
        0.7372549176216125,
        0.3843137323856354,
        1.0
      ],
      "min": [
        1.0,
        0.7372549176216125,
        0.3843137323856354,
        1.0
      ],
      "type": "VEC4"
    },
    {
      "bufferView": 1,
      "byteOffset": 3669848,
      "componentType": 5126,
      "count": 65534,
      "max": [
        0.5398064255714417,
        0.7403935194015503
      ],
      "min": [
        0.048327431082725525,
        0.25309011340141296
      ],
      "type": "VEC2"
    },
    {
      "bufferView": 0,
      "byteOffset": 2751492,
      "componentType": 5125,
      "count": 98298,
      "type": "SCALAR"
    },
    {
      "bufferView": 2,
      "byteOffset": 12582360,
      "componentType": 5126,
      "count": 65451,
      "max": [
        1.3201199769973755,
        0.3558099865913391,
        1.2790460586547852
      ],
      "min": [
        -1.8731319904327393,
        -2.3036999702453613,
        -1.1334919929504395
      ],
      "type": "VEC3"
    },
    {
      "bufferView": 2,
      "byteOffset": 13367772,
      "componentType": 5126,
      "count": 65451,
      "max": [
        0.999981701374054,
        0.9999996423721313,
        0.999527096748352
      ],
      "min": [
        -0.9988415837287903,
        -0.9999037384986877,
        -0.9999221563339233
      ],
      "type": "VEC3"
    },
    {
      "bufferView": 3,
      "byteOffset": 8388240,
      "componentType": 5126,
      "count": 65451,
      "max": [
        1.0,
        1.0,
        1.0,
        1.0
      ],
      "min": [
        0.4274509847164154,
        0.2666666805744171,
        0.08235294371843338,
        1.0
      ],
      "type": "VEC4"
    },
    {
      "bufferView": 1,
      "byteOffset": 4194120,
      "componentType": 5126,
      "count": 65451,
      "max": [
        0.625659167766571,
        0.8416342735290527
      ],
      "min": [
        0.0,
        0.015245958231389523
      ],
      "type": "VEC2"
    },
    {
      "bufferView": 0,
      "byteOffset": 3144684,
      "componentType": 5125,
      "count": 98175,
      "type": "SCALAR"
    }
  ],
  "asset": {
    "extras": {
      "author": "thartley (https://sketchfab.com/thartley)",
      "license": "CC-BY-4.0 (http://creativecommons.org/licenses/by/4.0/)",
      "source": "https://sketchfab.com/3d-models/goomba-d682adfe7978494cafc9c68507dc98cf",
      "title": "Goomba"
    },
    "generator": "Sketchfab-12.66.0",
    "version": "2.0"
  },
  "bufferViews": [
    {
      "buffer": 0,
      "byteLength": 3537384,
      "name": "floatBufferViews",
      "target": 34963
    },
    {
      "buffer": 0,
      "byteLength": 4717728,
      "byteOffset": 3537384,
      "byteStride": 8,
      "name": "floatBufferViews",
      "target": 34962
    },
    {
      "buffer": 0,
      "byteLength": 14153184,
      "byteOffset": 8255112,
      "byteStride": 12,
      "name": "floatBufferViews",
      "target": 34962
    },
    {
      "buffer": 0,
      "byteLength": 9435456,
      "byteOffset": 22408296,
      "byteStride": 16,
      "name": "floatBufferViews",
      "target": 34962
    }
  ],
  "buffers": [
    {
      "byteLength": 31843752,
      "uri": "scene.bin"
    }
  ],
  "extensionsUsed": [
    "KHR_materials_clearcoat"
  ],
  "materials": [
    {
      "doubleSided": true,
      "extensions": {
        "KHR_materials_clearcoat": {
          "clearcoatFactor": 0.2570773215621181,
          "clearcoatRoughnessFactor": 0.3361195726854301
        }
      },
      "name": "Scene_-_Root",
      "pbrMetallicRoughness": {
        "metallicFactor": 0.0,
        "roughnessFactor": 0.29298986435133667
      }
    }
  ],
  "meshes": [
    {
      "name": "Shape_IndexedFaceSet__0",
      "primitives": [
        {
          "attributes": {
            "COLOR_0": 2,
            "NORMAL": 1,
            "POSITION": 0,
            "TEXCOORD_0": 3
          },
          "indices": 4,
          "material": 0,
          "mode": 4
        }
      ]
    },
    {
      "name": "Shape_IndexedFaceSet__0",
      "primitives": [
        {
          "attributes": {
            "COLOR_0": 7,
            "NORMAL": 6,
            "POSITION": 5,
            "TEXCOORD_0": 8
          },
          "indices": 9,
          "material": 0,
          "mode": 4
        }
      ]
    },
    {
      "name": "Shape_IndexedFaceSet__0",
      "primitives": [
        {
          "attributes": {
            "COLOR_0": 12,
            "NORMAL": 11,
            "POSITION": 10,
            "TEXCOORD_0": 13
          },
          "indices": 14,
          "material": 0,
          "mode": 4
        }
      ]
    },
    {
      "name": "Shape_IndexedFaceSet__0",
      "primitives": [
        {
          "attributes": {
            "COLOR_0": 17,
            "NORMAL": 16,
            "POSITION": 15,
            "TEXCOORD_0": 18
          },
          "indices": 19,
          "material": 0,
          "mode": 4
        }
      ]
    },
    {
      "name": "Shape_IndexedFaceSet__0",
      "primitives": [
        {
          "attributes": {
            "COLOR_0": 22,
            "NORMAL": 21,
            "POSITION": 20,
            "TEXCOORD_0": 23
          },
          "indices": 24,
          "material": 0,
          "mode": 4
        }
      ]
    },
    {
      "name": "Shape_IndexedFaceSet__0",
      "primitives": [
        {
          "attributes": {
            "COLOR_0": 27,
            "NORMAL": 26,
            "POSITION": 25,
            "TEXCOORD_0": 28
          },
          "indices": 29,
          "material": 0,
          "mode": 4
        }
      ]
    },
    {
      "name": "Shape_IndexedFaceSet__0",
      "primitives": [
        {
          "attributes": {
            "COLOR_0": 32,
            "NORMAL": 31,
            "POSITION": 30,
            "TEXCOORD_0": 33
          },
          "indices": 34,
          "material": 0,
          "mode": 4
        }
      ]
    },
    {
      "name": "Shape_IndexedFaceSet__0",
      "primitives": [
        {
          "attributes": {
            "COLOR_0": 37,
            "NORMAL": 36,
            "POSITION": 35,
            "TEXCOORD_0": 38
          },
          "indices": 39,
          "material": 0,
          "mode": 4
        }
      ]
    },
    {
      "name": "Shape_IndexedFaceSet__0",
      "primitives": [
        {
          "attributes": {
            "COLOR_0": 42,
            "NORMAL": 41,
            "POSITION": 40,
            "TEXCOORD_0": 43
          },
          "indices": 44,
          "material": 0,
          "mode": 4
        }
      ]
    }
  ],
  "nodes": [
    {
      "children": [
        1
      ],
      "matrix": [
        1.0,
        3.5707495248565405e-32,
        -1.6081226229577292e-16,
        0.0,
        -1.6081226229577292e-16,
        2.220446049250313e-16,
        -1.0,
        0.0,
        0.0,
        1.0,
        2.220446049250313e-16,
        0.0,
        1.955468675873817e-08,
        -8.107947905955374e-06,
        1.266481922357343e-05,
        1.0
      ],
      "name": "Sketchfab_model"
    },
    {
      "children": [
        2
      ],
      "matrix": [
        1.0,
        0.0,
        0.0,
        0.0,
        0.0,
        0.0,
        1.0,
        0.0,
        0.0,
        -1.0,
        0.0,
        0.0,
        0.0,
        0.0,
        0.0,
        1.0
      ],
      "name": "449c0ede1dca4674ae61242726d1d25c.fbx"
    },
    {
      "children": [
        3
      ],
      "name": "RootNode"
    },
    {
      "children": [
        4,
        5,
        6,
        7,
        8,
        9,
        10,
        11,
        12
      ],
      "matrix": [
        -99.99999999999889,
        -1.2246467991473357e-14,
        1.5099579909783707e-05,
        0.0,
        -2.4722801565154086e-12,
        99.99999999999866,
        -1.6292067085455398e-05,
        0.0,
        -1.5099579909783506e-05,
        -1.6292067085455584e-05,
        -99.99999999999756,
        0.0,
        0.0,
        0.0,
        0.0,
        1.0
      ],
      "name": "Shape_IndexedFaceSet"
    },
    {
      "mesh": 0,
      "name": "Shape_IndexedFaceSet__0"
    },
    {
      "mesh": 1,
      "name": "Shape_IndexedFaceSet__0"
    },
    {
      "mesh": 2,
      "name": "Shape_IndexedFaceSet__0"
    },
    {
      "mesh": 3,
      "name": "Shape_IndexedFaceSet__0"
    },
    {
      "mesh": 4,
      "name": "Shape_IndexedFaceSet__0"
    },
    {
      "mesh": 5,
      "name": "Shape_IndexedFaceSet__0"
    },
    {
      "mesh": 6,
      "name": "Shape_IndexedFaceSet__0"
    },
    {
      "mesh": 7,
      "name": "Shape_IndexedFaceSet__0"
    },
    {
      "mesh": 8,
      "name": "Shape_IndexedFaceSet__0"
    }
  ],
  "scene": 0,
  "scenes": [
    {
      "name": "Sketchfab_Scene",
      "nodes": [
        0
      ]
    }
  ]
}
